<svg viewBox="0 0 200 120"  xmlns="http://www.w3.org/2000/svg">
  <defs></defs>
  <path id="path256" style="fill:#2b2b2a;fill-opacity:1;fill-rule:evenodd;stroke:none" d="M 35.335 25.942 C 35.79 22.406 33.186 19.597 30.095 19.191 C 26.538 18.725 23.696 21.348 23.296 24.403 C 22.825 28 25.482 30.865 28.52 31.231 C 32.18 31.674 34.932 29.075 35.335 25.942"></path>
  <path id="path258" style="fill:#2b2b2a;fill-opacity:1;fill-rule:evenodd;stroke:none" d="M 98.856 27.002 C 98.759 25.892 98.859 24.406 98.858 23.255 C 98.858 20.04 98.85 20.182 103.36 20.254 C 106.223 20.3 105.723 20.931 105.729 25.517 C 105.733 28.422 105.638 28.624 101.166 28.475 C 99.87 28.432 98.971 28.298 98.856 27.002 Z M 98.835 17.496 C 98.834 16.115 98.846 14.738 98.835 13.357 C 98.829 12.717 98.854 12.082 98.486 11.652 C 98.173 11.286 97.599 11.093 96.942 11.258 C 95.736 11.562 96.059 13.163 96.049 14.488 L 96.105 26.648 C 96.125 28.076 96.24 28.851 96.984 29.768 C 97.57 30.49 98.376 30.945 99.687 31.096 C 101.936 31.354 105.184 31.553 106.817 30.387 C 108.73 29.02 108.524 26.886 108.524 23.962 C 108.524 22.765 108.614 21.206 108.224 20.163 C 107.858 19.185 107.176 18.424 106.363 17.992 C 104.663 17.09 100.988 17.539 98.835 17.496"></path>
  <path id="path260" style="fill:#2b2b2a;fill-opacity:1;fill-rule:evenodd;stroke:none" d="M 67.448 20.278 C 68.265 20.137 70.246 20.211 71.174 20.238 C 72.562 20.277 72.983 20.817 72.987 22.193 C 72.991 23.466 72.985 24.739 72.986 26.013 C 72.987 27.317 72.909 28.209 71.664 28.411 C 70.739 28.561 68.914 28.507 67.923 28.457 C 66.607 28.39 66.085 27.86 66.101 26.509 C 66.116 25.244 66.133 23.954 66.111 22.689 C 66.086 21.279 66.113 20.509 67.448 20.278 Z M 66.124 31.291 C 68.413 31.126 71.681 31.702 73.54 30.714 C 75.573 29.633 75.799 27.832 75.811 24.952 C 75.823 22.123 76.036 19.9 74.288 18.444 C 73.443 17.74 72.6 17.558 71.244 17.46 C 67.884 17.215 63.802 17.09 63.354 21.395 C 63.258 22.317 63.316 31.538 63.303 33.366 C 63.295 34.588 63.092 36.177 63.964 36.681 C 65.193 37.391 66.023 36.439 66.094 35.206 C 66.16 34.081 65.964 32.283 66.124 31.291"></path>
  <path id="path262" style="fill:#2b2b2a;fill-opacity:1;fill-rule:evenodd;stroke:none" d="M 171.913 23.592 C 171.88 21.706 171.628 20.262 173.681 20.17 C 174.82 20.118 177.842 19.967 178.521 20.538 C 178.965 20.91 179.166 21.966 178.677 22.524 C 178.256 23.005 177.394 22.998 176.642 23.083 C 175.822 23.176 175.091 23.253 174.279 23.348 C 173.584 23.43 172.571 23.604 171.913 23.592 Z M 181.629 22.548 C 181.911 21.028 181.484 19.707 180.733 18.822 C 179.938 17.883 178.979 17.603 177.317 17.482 C 176.001 17.387 174.023 17.37 172.713 17.549 C 171.369 17.734 170.384 18.514 169.849 19.356 C 169.088 20.554 169.147 21.746 169.147 23.396 C 169.147 26.07 168.646 29.236 171.266 30.689 C 172.938 31.616 177.79 31.571 179.377 30.648 C 180.991 29.707 182.228 26.931 180.174 26.448 C 179.358 26.256 178.888 26.707 178.596 27.179 C 177.766 28.525 177.245 28.514 175.236 28.514 C 173.79 28.513 171.877 28.708 171.981 27.004 C 172.029 26.214 172.776 26.266 173.501 26.182 C 174.216 26.097 174.889 26.03 175.592 25.965 C 178.004 25.745 181.035 25.756 181.629 22.548"></path>
  <path id="path264" style="fill:#2b2b2a;fill-opacity:1;fill-rule:evenodd;stroke:none" d="M 153.445 25.162 C 153.55 27.052 153.607 28.424 151.61 28.49 C 150.415 28.529 147.573 28.741 146.856 28.074 C 146.433 27.681 146.273 26.737 146.72 26.218 C 147.139 25.733 147.978 25.715 148.755 25.631 C 150.171 25.476 152.052 25.19 153.445 25.162 Z M 151.249 31.308 C 151.855 31.267 154.142 30.522 154.789 30.177 C 155.436 29.833 156.23 28.035 156.256 26.154 C 156.275 24.762 156.39 22.079 156.128 20.856 C 155.329 17.113 151.689 17.277 148.563 17.471 C 146.676 17.588 145.56 18.008 144.79 19.199 C 143.433 21.297 144.46 22.462 145.804 22.274 C 146.657 22.154 146.736 21.387 147.175 20.876 C 147.748 20.209 148.159 20.325 149.273 20.281 C 150.164 20.246 151.101 20.255 151.977 20.328 C 152.546 20.374 152.624 20.467 152.86 20.801 C 153.041 21.055 153.272 21.345 153.377 21.629 C 152.565 22.433 152.363 22.426 150.935 22.597 C 149.9 22.721 148.894 22.806 147.857 22.904 C 142.502 23.404 142.933 28.954 145.355 30.493 C 146.937 31.498 149.146 31.45 151.249 31.308"></path>
  <path id="path266" style="fill:#2b2b2a;fill-opacity:1;fill-rule:evenodd;stroke:none" d="M 132.902 20.239 C 133.723 20.184 134.628 20.191 135.478 20.212 C 136.445 20.237 136.961 20.258 137.301 21.008 C 137.588 21.642 137.61 22.416 138.047 22.879 C 138.504 23.364 139.431 23.411 139.973 22.941 C 141.031 22.022 140.031 19.72 139.462 18.99 C 138.498 17.752 137.312 17.551 135.763 17.468 C 132.161 17.275 129.165 17.255 128.161 20.328 C 127.789 21.468 127.932 23.946 127.93 25.306 C 127.927 27.182 127.858 28.29 128.824 29.622 C 129.619 30.716 130.653 31.043 132.506 31.165 C 133.893 31.256 136.238 31.259 137.534 30.977 C 138.867 30.687 139.8 29.646 140.184 28.381 C 140.957 25.827 139.547 24.987 138.344 25.554 C 136.987 26.193 138.368 28.284 135.978 28.438 C 134.811 28.513 131.979 28.695 131.234 28.063 C 130.665 27.581 130.728 26.778 130.727 25.942 C 130.727 24.973 130.573 21.593 130.956 20.927 C 131.318 20.298 132.018 20.298 132.902 20.239"></path>
  <path id="path268" style="fill:#2b2b2a;fill-opacity:1;fill-rule:evenodd;stroke:none" d="M 79.353 27.215 C 79.702 30.588 81.885 31.224 84.752 31.225 C 86.293 31.226 87.713 31.114 89.211 30.967 C 92.43 30.649 91.944 26.837 91.877 24.245 C 91.837 22.715 91.882 21.117 91.882 19.578 C 91.882 18.844 91.855 18.043 91.44 17.633 C 91.065 17.263 90.132 17.147 89.635 17.528 C 89.14 17.907 89.086 18.521 89.087 19.295 L 89.078 26.367 C 89.037 28.276 88.274 28.451 86.453 28.471 C 85.189 28.486 83.034 28.698 82.434 27.764 C 81.861 26.873 82.271 20.497 82.122 18.663 C 81.981 16.939 79.994 17.011 79.499 18.005 C 79.146 18.716 79.224 25.953 79.354 27.215"></path>
  <path id="path270" style="fill:#2b2b2a;fill-opacity:1;fill-rule:evenodd;stroke:none" d="M 115.175 15.407 C 115.175 14.176 115.458 11.644 114.352 11.281 C 112.404 10.643 112.383 12.618 112.383 14.134 C 112.384 14.629 112.337 19.83 112.418 20.266 C 112.582 21.153 112.44 24.962 112.453 26.154 C 112.469 27.617 112.342 29.229 113.075 30.232 C 113.54 30.867 114.608 31.56 115.734 31.233 C 117.184 30.812 117.003 29.343 116.419 28.936 C 116.188 28.774 116.014 28.782 115.775 28.592 C 114.956 27.941 115.189 26.614 115.188 25.235 L 115.175 15.407 Z"></path>
  <path id="path272" style="fill:#2b2b2a;fill-opacity:1;fill-rule:evenodd;stroke:none" d="M 167.759 19.225 C 167.943 18.396 167.585 17.562 166.752 17.503 C 165.964 17.446 164.784 17.485 163.986 17.535 C 162.046 17.658 160.911 17.911 160.088 19.146 C 159.005 20.769 159.682 24.723 159.499 25.489 C 159.451 25.688 159.399 25.516 159.394 26.079 C 159.38 27.78 158.984 30.696 160.501 31.197 C 161.105 31.397 162.092 30.566 162.172 30.184 L 162.175 24.669 C 162.175 22.774 161.827 20.701 163.352 20.352 C 164.889 20.001 167.393 20.874 167.759 19.225"></path>
  <path id="path274" style="fill:#2b2b2a;fill-opacity:1;fill-rule:evenodd;stroke:none" d="M 120.872 29.83 C 120.973 31.995 122.906 31.367 123.268 30.989 C 123.861 30.369 123.66 28.253 123.66 27.215 C 123.66 25.489 123.747 20.154 123.65 18.872 C 123.513 17.061 121.787 17.12 121.258 17.74 C 120.678 18.419 120.853 20.403 120.853 21.487 C 120.853 24.199 120.746 27.148 120.872 29.83"></path>
  <path id="path276" style="fill:#2b2b2a;fill-opacity:1;fill-rule:evenodd;stroke:none" d="M 121.691 11.292 C 120.895 11.567 120.717 12.623 120.924 13.627 C 121.089 14.424 121.868 15.005 122.847 14.591 C 124.216 14.012 123.934 10.515 121.691 11.292"></path>
  <path id="path278" style="fill:#2b2b2a;fill-opacity:1;fill-rule:evenodd;stroke:none" d="M 40.564 26.083 C 40.907 28.308 43.069 30.271 45.782 29.848 C 48.028 29.498 49.994 27.361 49.571 24.621 C 49.217 22.331 47.064 20.44 44.359 20.835 C 42.081 21.167 40.139 23.323 40.564 26.083"></path>
  <path id="path280" style="fill:#2b2b2a;fill-opacity:1;fill-rule:evenodd;stroke:none" d="M 12.599 25.73 C 12.81 27.2 14.358 28.514 16.188 28.178 C 17.626 27.914 18.954 26.474 18.605 24.616 C 17.895 20.84 12 21.574 12.599 25.73"></path>
  <path id="path282" style="fill:#2b2b2a;fill-opacity:1;fill-rule:nonzero;stroke:none" d="M 10.655 60.792 L 13.8 52.593 L 14.993 52.593 L 18.331 60.792 L 17.096 60.792 L 16.147 58.308 L 12.695 58.308 L 11.805 60.792 L 10.655 60.792 Z M 13.014 57.426 L 15.807 57.426 L 14.952 55.153 C 14.695 54.462 14.5 53.891 14.365 53.441 C 14.252 53.976 14.101 54.5 13.912 55.019 L 13.014 57.426 Z M 19.065 60.792 L 19.065 54.849 L 19.97 54.849 L 19.97 55.693 C 20.405 55.046 21.035 54.723 21.857 54.723 C 22.216 54.723 22.544 54.788 22.844 54.916 C 23.144 55.044 23.369 55.214 23.518 55.422 C 23.667 55.63 23.772 55.878 23.831 56.164 C 23.867 56.351 23.886 56.678 23.886 57.144 L 23.886 60.792 L 22.879 60.792 L 22.879 57.181 C 22.879 56.771 22.84 56.464 22.762 56.262 C 22.684 56.059 22.544 55.897 22.346 55.775 C 22.148 55.655 21.912 55.594 21.646 55.594 C 21.218 55.594 20.85 55.729 20.539 56.002 C 20.228 56.273 20.073 56.79 20.073 57.55 L 20.073 60.792 L 19.065 60.792 Z M 32.451 60.792 L 32.451 60.038 C 32.075 60.625 31.522 60.918 30.791 60.918 C 30.318 60.918 29.882 60.789 29.487 60.527 C 29.091 60.268 28.783 59.903 28.564 59.437 C 28.346 58.97 28.238 58.433 28.238 57.827 C 28.238 57.235 28.337 56.699 28.533 56.216 C 28.732 55.735 29.028 55.365 29.423 55.109 C 29.816 54.851 30.258 54.723 30.745 54.723 C 31.104 54.723 31.423 54.8 31.702 54.95 C 31.98 55.101 32.207 55.3 32.383 55.542 L 32.383 52.593 L 33.39 52.593 L 33.39 60.792 L 32.451 60.792 Z M 29.268 57.828 C 29.268 58.588 29.428 59.155 29.751 59.531 C 30.071 59.907 30.451 60.094 30.888 60.094 C 31.329 60.094 31.703 59.914 32.013 59.556 C 32.32 59.197 32.474 58.649 32.474 57.912 C 32.474 57.103 32.318 56.508 32.003 56.128 C 31.69 55.748 31.302 55.56 30.842 55.56 C 30.394 55.56 30.02 55.74 29.718 56.105 C 29.419 56.47 29.268 57.044 29.268 57.828 Z M 39.038 58.869 L 40.08 59.006 C 39.917 59.611 39.614 60.083 39.171 60.417 C 38.728 60.751 38.163 60.918 37.474 60.918 C 36.608 60.918 35.921 60.651 35.413 60.117 C 34.906 59.585 34.652 58.834 34.652 57.871 C 34.652 56.874 34.908 56.099 35.421 55.55 C 35.934 54.998 36.6 54.723 37.419 54.723 C 38.211 54.723 38.858 54.993 39.36 55.533 C 39.862 56.073 40.114 56.832 40.114 57.811 C 40.114 57.871 40.113 57.96 40.109 58.079 L 35.683 58.079 C 35.721 58.729 35.904 59.229 36.236 59.574 C 36.566 59.92 36.98 60.094 37.475 60.094 C 37.843 60.094 38.158 59.997 38.418 59.802 C 38.679 59.607 38.885 59.296 39.038 58.869 Z M 35.74 57.254 L 39.049 57.254 C 39.005 56.754 38.877 56.38 38.669 56.13 C 38.35 55.743 37.934 55.548 37.425 55.548 C 36.963 55.548 36.576 55.702 36.261 56.012 C 35.948 56.321 35.774 56.735 35.74 57.254 Z M 41.341 60.792 L 41.341 54.849 L 42.246 54.849 L 42.246 55.759 C 42.477 55.338 42.69 55.059 42.887 54.926 C 43.083 54.79 43.299 54.723 43.534 54.723 C 43.874 54.723 44.219 54.83 44.57 55.042 L 44.211 55.971 C 43.967 55.834 43.723 55.766 43.478 55.766 C 43.259 55.766 43.062 55.832 42.888 55.964 C 42.715 56.095 42.591 56.279 42.517 56.513 C 42.404 56.87 42.348 57.261 42.348 57.687 L 42.348 60.792 L 41.341 60.792 Z M 50.351 60.792 L 50.351 53.555 L 47.648 53.555 L 47.648 52.593 L 54.141 52.593 L 54.141 53.555 L 51.439 53.555 L 51.439 60.792 L 50.351 60.792 Z M 54.698 60.792 L 54.698 54.849 L 55.603 54.849 L 55.603 55.759 C 55.834 55.338 56.047 55.059 56.244 54.926 C 56.44 54.79 56.656 54.723 56.891 54.723 C 57.231 54.723 57.576 54.83 57.927 55.042 L 57.569 55.971 C 57.324 55.834 57.08 55.766 56.836 55.766 C 56.616 55.766 56.42 55.832 56.246 55.964 C 56.072 56.095 55.948 56.279 55.874 56.513 C 55.761 56.87 55.706 57.261 55.706 57.687 L 55.706 60.792 L 54.698 60.792 Z M 62.404 60.048 C 62.031 60.367 61.67 60.59 61.324 60.722 C 60.979 60.854 60.609 60.918 60.212 60.918 C 59.559 60.918 59.057 60.76 58.706 60.442 C 58.355 60.124 58.179 59.718 58.179 59.224 C 58.179 58.934 58.246 58.668 58.378 58.428 C 58.511 58.187 58.685 57.996 58.899 57.852 C 59.114 57.706 59.355 57.596 59.624 57.521 C 59.822 57.47 60.122 57.42 60.521 57.37 C 61.334 57.275 61.935 57.159 62.319 57.025 C 62.323 56.888 62.324 56.8 62.324 56.764 C 62.324 56.355 62.229 56.067 62.038 55.899 C 61.78 55.672 61.397 55.56 60.889 55.56 C 60.414 55.56 60.063 55.643 59.838 55.809 C 59.61 55.976 59.444 56.269 59.336 56.693 L 58.351 56.556 C 58.44 56.134 58.587 55.792 58.794 55.533 C 59 55.273 59.297 55.075 59.687 54.934 C 60.074 54.794 60.527 54.723 61.038 54.723 C 61.546 54.723 61.96 54.783 62.278 54.903 C 62.595 55.023 62.83 55.172 62.979 55.354 C 63.128 55.535 63.233 55.764 63.294 56.04 C 63.326 56.212 63.343 56.521 63.343 56.966 L 63.343 58.302 C 63.343 59.235 63.364 59.825 63.406 60.074 C 63.446 60.325 63.53 60.563 63.653 60.792 L 62.599 60.792 C 62.498 60.581 62.433 60.333 62.404 60.048 Z M 62.324 57.816 C 61.958 57.964 61.408 58.09 60.675 58.193 C 60.26 58.252 59.966 58.319 59.794 58.394 C 59.622 58.468 59.49 58.577 59.397 58.718 C 59.303 58.861 59.256 59.02 59.256 59.195 C 59.256 59.46 59.357 59.683 59.561 59.861 C 59.765 60.038 60.063 60.129 60.454 60.129 C 60.842 60.129 61.187 60.045 61.491 59.875 C 61.792 59.706 62.015 59.475 62.157 59.183 C 62.265 58.956 62.319 58.623 62.319 58.182 L 62.324 57.816 Z M 68.773 60.792 L 68.773 59.909 C 68.311 60.582 67.685 60.918 66.893 60.918 C 66.544 60.918 66.218 60.852 65.914 60.718 C 65.611 60.582 65.385 60.415 65.239 60.212 C 65.092 60.008 64.989 59.76 64.93 59.466 C 64.89 59.267 64.868 58.954 64.868 58.527 L 64.868 54.849 L 65.876 54.849 L 65.876 58.138 C 65.876 58.662 65.897 59.018 65.937 59.199 C 66 59.464 66.134 59.67 66.34 59.821 C 66.544 59.972 66.796 60.048 67.098 60.048 C 67.399 60.048 67.682 59.972 67.945 59.818 C 68.208 59.663 68.395 59.45 68.506 59.185 C 68.615 58.92 68.67 58.533 68.67 58.027 L 68.67 54.849 L 69.678 54.849 L 69.678 60.792 L 68.773 60.792 Z M 71.26 60.792 L 71.26 54.849 L 72.164 54.849 L 72.164 55.693 C 72.599 55.046 73.229 54.723 74.052 54.723 C 74.411 54.723 74.739 54.788 75.039 54.916 C 75.338 55.044 75.563 55.214 75.712 55.422 C 75.861 55.63 75.966 55.878 76.025 56.164 C 76.061 56.351 76.081 56.678 76.081 57.144 L 76.081 60.792 L 75.073 60.792 L 75.073 57.181 C 75.073 56.771 75.035 56.464 74.956 56.262 C 74.878 56.059 74.739 55.897 74.541 55.775 C 74.342 55.655 74.107 55.594 73.84 55.594 C 73.412 55.594 73.044 55.729 72.733 56.002 C 72.422 56.273 72.268 56.79 72.268 57.55 L 72.268 60.792 L 71.26 60.792 Z M 81.682 58.869 L 82.724 59.006 C 82.562 59.611 82.258 60.083 81.815 60.417 C 81.373 60.751 80.808 60.918 80.119 60.918 C 79.252 60.918 78.565 60.651 78.058 60.117 C 77.55 59.585 77.296 58.834 77.296 57.871 C 77.296 56.874 77.552 56.099 78.065 55.55 C 78.579 54.998 79.245 54.723 80.064 54.723 C 80.855 54.723 81.502 54.993 82.004 55.533 C 82.506 56.073 82.758 56.832 82.758 57.811 C 82.758 57.871 82.757 57.96 82.753 58.079 L 78.327 58.079 C 78.365 58.729 78.548 59.229 78.88 59.574 C 79.211 59.92 79.625 60.094 80.119 60.094 C 80.488 60.094 80.802 59.997 81.062 59.802 C 81.323 59.607 81.53 59.296 81.682 58.869 Z M 78.384 57.254 L 81.693 57.254 C 81.65 56.754 81.522 56.38 81.314 56.13 C 80.995 55.743 80.579 55.548 80.069 55.548 C 79.607 55.548 79.22 55.702 78.905 56.012 C 78.592 56.321 78.418 56.735 78.384 57.254 Z M 83.985 60.792 L 83.985 54.849 L 84.89 54.849 L 84.89 55.759 C 85.121 55.338 85.334 55.059 85.531 54.926 C 85.728 54.79 85.943 54.723 86.178 54.723 C 86.518 54.723 86.863 54.83 87.214 55.042 L 86.856 55.971 C 86.611 55.834 86.367 55.766 86.123 55.766 C 85.903 55.766 85.707 55.832 85.533 55.964 C 85.359 56.095 85.236 56.279 85.161 56.513 C 85.048 56.87 84.993 57.261 84.993 57.687 L 84.993 60.792 L 83.985 60.792 Z M 91.072 60.792 L 91.072 52.593 L 92.16 52.593 L 92.16 56.659 L 96.232 52.593 L 97.702 52.593 L 94.262 55.919 L 97.851 60.792 L 96.419 60.792 L 93.501 56.655 L 92.16 57.953 L 92.16 60.792 L 91.072 60.792 Z M 98.618 60.792 L 98.618 54.849 L 99.522 54.849 L 99.522 55.759 C 99.753 55.338 99.967 55.059 100.164 54.926 C 100.36 54.79 100.576 54.723 100.811 54.723 C 101.15 54.723 101.496 54.83 101.847 55.042 L 101.488 55.971 C 101.244 55.834 101 55.766 100.755 55.766 C 100.536 55.766 100.339 55.832 100.165 55.964 C 99.992 56.095 99.868 56.279 99.794 56.513 C 99.681 56.87 99.625 57.261 99.625 57.687 L 99.625 60.792 L 98.618 60.792 Z M 106.496 58.869 L 107.538 59.006 C 107.376 59.611 107.072 60.083 106.63 60.417 C 106.187 60.751 105.622 60.918 104.933 60.918 C 104.067 60.918 103.38 60.651 102.872 60.117 C 102.364 59.585 102.11 58.834 102.11 57.871 C 102.11 56.874 102.366 56.099 102.879 55.55 C 103.393 54.998 104.059 54.723 104.878 54.723 C 105.67 54.723 106.317 54.993 106.818 55.533 C 107.32 56.073 107.572 56.832 107.572 57.811 C 107.572 57.871 107.571 57.96 107.567 58.079 L 103.141 58.079 C 103.179 58.729 103.362 59.229 103.695 59.574 C 104.025 59.92 104.439 60.094 104.933 60.094 C 105.302 60.094 105.616 59.997 105.876 59.802 C 106.137 59.607 106.344 59.296 106.496 58.869 Z M 103.198 57.254 L 106.507 57.254 C 106.464 56.754 106.336 56.38 106.128 56.13 C 105.809 55.743 105.393 55.548 104.883 55.548 C 104.422 55.548 104.034 55.702 103.719 56.012 C 103.406 56.321 103.232 56.735 103.198 57.254 Z M 112.693 60.792 L 112.693 59.909 C 112.231 60.582 111.605 60.918 110.813 60.918 C 110.463 60.918 110.137 60.852 109.834 60.718 C 109.53 60.582 109.305 60.415 109.158 60.212 C 109.011 60.008 108.908 59.76 108.849 59.466 C 108.809 59.267 108.788 58.954 108.788 58.527 L 108.788 54.849 L 109.796 54.849 L 109.796 58.138 C 109.796 58.662 109.817 59.018 109.857 59.199 C 109.92 59.464 110.053 59.67 110.259 59.821 C 110.463 59.972 110.716 60.048 111.017 60.048 C 111.319 60.048 111.601 59.972 111.864 59.818 C 112.128 59.663 112.315 59.45 112.425 59.185 C 112.534 58.92 112.59 58.533 112.59 58.027 L 112.59 54.849 L 113.597 54.849 L 113.597 60.792 L 112.693 60.792 Z M 114.647 60.792 L 114.647 59.972 L 118.41 55.628 C 117.983 55.651 117.607 55.663 117.282 55.663 L 114.876 55.663 L 114.876 54.849 L 119.72 54.849 L 119.72 55.512 L 116.498 59.279 L 115.882 59.98 C 116.334 59.942 116.758 59.922 117.153 59.922 L 119.903 59.922 L 119.903 60.792 L 114.647 60.792 Z M 124.786 60.792 L 124.786 59.909 C 124.324 60.582 123.699 60.918 122.907 60.918 C 122.557 60.918 122.231 60.852 121.928 60.718 C 121.624 60.582 121.399 60.415 121.252 60.212 C 121.105 60.008 121.002 59.76 120.943 59.466 C 120.903 59.267 120.882 58.954 120.882 58.527 L 120.882 54.849 L 121.889 54.849 L 121.889 58.138 C 121.889 58.662 121.91 59.018 121.951 59.199 C 122.013 59.464 122.147 59.67 122.353 59.821 C 122.557 59.972 122.809 60.048 123.111 60.048 C 123.412 60.048 123.695 59.972 123.958 59.818 C 124.222 59.663 124.408 59.45 124.519 59.185 C 124.628 58.92 124.684 58.533 124.684 58.027 L 124.684 54.849 L 125.691 54.849 L 125.691 60.792 L 124.786 60.792 Z M 127.273 60.792 L 127.273 54.849 L 128.178 54.849 L 128.178 55.693 C 128.613 55.046 129.243 54.723 130.065 54.723 C 130.424 54.723 130.752 54.788 131.052 54.916 C 131.351 55.044 131.577 55.214 131.726 55.422 C 131.874 55.63 131.98 55.878 132.038 56.164 C 132.075 56.351 132.094 56.678 132.094 57.144 L 132.094 60.792 L 131.086 60.792 L 131.086 57.181 C 131.086 56.771 131.048 56.464 130.97 56.262 C 130.891 56.059 130.752 55.897 130.554 55.775 C 130.356 55.655 130.12 55.594 129.854 55.594 C 129.426 55.594 129.058 55.729 128.747 56.002 C 128.436 56.273 128.281 56.79 128.281 57.55 L 128.281 60.792 L 127.273 60.792 Z M 133.457 61.285 L 134.43 61.422 C 134.47 61.724 134.584 61.944 134.772 62.083 C 135.021 62.268 135.363 62.362 135.796 62.362 C 136.262 62.362 136.623 62.268 136.877 62.083 C 137.13 61.898 137.302 61.636 137.392 61.302 C 137.443 61.098 137.468 60.669 137.464 60.014 C 137.023 60.533 136.476 60.792 135.819 60.792 C 135.002 60.792 134.369 60.499 133.922 59.909 C 133.474 59.321 133.25 58.615 133.25 57.792 C 133.25 57.226 133.353 56.703 133.558 56.223 C 133.762 55.745 134.059 55.377 134.449 55.115 C 134.838 54.854 135.296 54.723 135.823 54.723 C 136.523 54.723 137.102 55.01 137.556 55.583 L 137.556 54.849 L 138.483 54.849 L 138.483 59.981 C 138.483 60.907 138.39 61.562 138.201 61.947 C 138.014 62.332 137.714 62.638 137.308 62.861 C 136.899 63.084 136.397 63.197 135.802 63.197 C 135.094 63.197 134.523 63.039 134.088 62.72 C 133.651 62.403 133.441 61.924 133.457 61.285 Z M 134.281 57.72 C 134.281 58.497 134.436 59.064 134.745 59.42 C 135.056 59.777 135.443 59.956 135.909 59.956 C 136.372 59.956 136.76 59.779 137.075 59.424 C 137.388 59.069 137.544 58.512 137.544 57.752 C 137.544 57.027 137.382 56.479 137.06 56.111 C 136.737 55.743 136.348 55.56 135.894 55.56 C 135.445 55.56 135.066 55.74 134.75 56.103 C 134.437 56.466 134.281 57.004 134.281 57.72 Z M 146.696 60.792 L 145.688 60.792 L 145.688 54.376 C 145.446 54.609 145.127 54.84 144.734 55.071 C 144.34 55.302 143.986 55.475 143.673 55.59 L 143.673 54.616 C 144.236 54.353 144.728 54.033 145.15 53.655 C 145.572 53.279 145.871 52.915 146.047 52.559 L 146.696 52.559 L 146.696 60.792 Z"></path>
  <path id="path284" style="fill:#2b2b2a;fill-opacity:1;fill-rule:nonzero;stroke:none" d="M 13.971 75.894 L 13.971 73.937 L 10.41 73.937 L 10.41 73.009 L 14.154 67.696 L 14.978 67.696 L 14.978 73.009 L 16.089 73.009 L 16.089 73.937 L 14.978 73.937 L 14.978 75.894 L 13.971 75.894 Z M 13.971 73.009 L 13.971 69.32 L 11.4 73.009 L 13.971 73.009 Z M 17.121 71.848 C 17.121 70.881 17.221 70.099 17.419 69.507 C 17.619 68.913 17.915 68.458 18.308 68.138 C 18.7 67.82 19.194 67.661 19.79 67.661 C 20.228 67.661 20.614 67.75 20.948 67.926 C 21.28 68.104 21.555 68.36 21.768 68.694 C 21.982 69.026 22.15 69.432 22.272 69.912 C 22.396 70.39 22.458 71.037 22.458 71.848 C 22.458 72.81 22.358 73.589 22.162 74.181 C 21.965 74.774 21.669 75.231 21.276 75.551 C 20.885 75.871 20.389 76.032 19.79 76.032 C 19.001 76.032 18.381 75.752 17.93 75.189 C 17.39 74.502 17.121 73.389 17.121 71.848 Z M 18.152 71.852 C 18.152 73.201 18.308 74.099 18.623 74.541 C 18.938 74.986 19.328 75.208 19.79 75.208 C 20.251 75.208 20.641 74.984 20.956 74.54 C 21.27 74.093 21.427 73.198 21.427 71.852 C 21.427 70.503 21.27 69.606 20.956 69.163 C 20.643 68.718 20.25 68.497 19.778 68.497 C 19.316 68.497 18.946 68.694 18.669 69.085 C 18.324 69.583 18.152 70.507 18.152 71.852 Z M 28.723 69.699 L 27.727 69.779 C 27.637 69.384 27.509 69.096 27.343 68.917 C 27.07 68.629 26.733 68.486 26.332 68.486 C 26.009 68.486 25.723 68.575 25.477 68.755 C 25.16 68.986 24.912 69.322 24.727 69.765 C 24.543 70.209 24.448 70.841 24.44 71.66 C 24.683 71.292 24.98 71.016 25.332 70.839 C 25.683 70.659 26.049 70.57 26.435 70.57 C 27.106 70.57 27.679 70.818 28.152 71.312 C 28.624 71.807 28.86 72.444 28.86 73.228 C 28.86 73.743 28.75 74.221 28.528 74.664 C 28.305 75.107 28.001 75.444 27.612 75.678 C 27.225 75.914 26.784 76.032 26.292 76.032 C 25.454 76.032 24.769 75.723 24.238 75.107 C 23.709 74.49 23.444 73.473 23.444 72.056 C 23.444 70.472 23.738 69.32 24.324 68.6 C 24.835 67.974 25.524 67.661 26.393 67.661 C 27.038 67.661 27.568 67.843 27.981 68.204 C 28.393 68.564 28.641 69.062 28.723 69.699 Z M 24.6 73.238 C 24.6 73.585 24.675 73.917 24.822 74.234 C 24.969 74.551 25.175 74.792 25.437 74.958 C 25.7 75.123 25.979 75.208 26.274 75.208 C 26.704 75.208 27.07 75.036 27.374 74.692 C 27.677 74.348 27.83 73.883 27.83 73.293 C 27.83 72.726 27.679 72.28 27.379 71.953 C 27.08 71.627 26.698 71.463 26.234 71.463 C 25.78 71.463 25.393 71.627 25.076 71.953 C 24.759 72.28 24.6 72.707 24.6 73.238 Z M 33.637 75.894 L 32.629 75.894 L 32.629 69.478 C 32.387 69.711 32.068 69.942 31.675 70.173 C 31.282 70.404 30.927 70.577 30.614 70.692 L 30.614 69.719 C 31.177 69.455 31.669 69.135 32.091 68.757 C 32.513 68.381 32.813 68.017 32.988 67.661 L 33.637 67.661 L 33.637 75.894 Z M 39.809 75.894 L 39.809 67.695 L 42.905 67.695 C 43.449 67.695 43.865 67.722 44.153 67.774 C 44.556 67.841 44.894 67.969 45.166 68.156 C 45.439 68.344 45.659 68.608 45.825 68.946 C 45.991 69.284 46.073 69.656 46.073 70.062 C 46.073 70.757 45.852 71.347 45.407 71.828 C 44.964 72.31 44.161 72.551 43 72.551 L 40.897 72.551 L 40.897 75.894 L 39.809 75.894 Z M 40.897 71.589 L 43.016 71.589 C 43.718 71.589 44.214 71.459 44.51 71.198 C 44.804 70.936 44.951 70.57 44.951 70.095 C 44.951 69.753 44.865 69.459 44.691 69.215 C 44.518 68.97 44.288 68.808 44.006 68.73 C 43.823 68.682 43.485 68.657 42.994 68.657 L 40.897 68.657 L 40.897 71.589 Z M 51.203 75.15 C 50.829 75.469 50.468 75.692 50.123 75.824 C 49.777 75.956 49.407 76.02 49.01 76.02 C 48.357 76.02 47.855 75.862 47.504 75.544 C 47.153 75.226 46.978 74.82 46.978 74.325 C 46.978 74.036 47.044 73.77 47.176 73.53 C 47.309 73.29 47.483 73.098 47.697 72.954 C 47.913 72.808 48.153 72.698 48.422 72.623 C 48.621 72.572 48.92 72.522 49.319 72.472 C 50.132 72.378 50.733 72.261 51.117 72.127 C 51.121 71.99 51.122 71.902 51.122 71.866 C 51.122 71.457 51.027 71.169 50.836 71.001 C 50.578 70.774 50.195 70.662 49.687 70.662 C 49.212 70.662 48.861 70.746 48.636 70.911 C 48.408 71.078 48.243 71.372 48.134 71.795 L 47.149 71.658 C 47.238 71.236 47.385 70.894 47.592 70.635 C 47.798 70.376 48.096 70.177 48.485 70.035 C 48.872 69.896 49.325 69.826 49.836 69.826 C 50.344 69.826 50.758 69.884 51.076 70.005 C 51.393 70.125 51.628 70.274 51.777 70.456 C 51.926 70.637 52.031 70.866 52.092 71.142 C 52.124 71.314 52.142 71.624 52.142 72.068 L 52.142 73.404 C 52.142 74.337 52.162 74.927 52.204 75.177 C 52.244 75.427 52.328 75.665 52.451 75.894 L 51.397 75.894 C 51.296 75.683 51.231 75.434 51.202 75.15 L 51.203 75.15 Z M 51.123 72.918 C 50.756 73.066 50.206 73.192 49.474 73.295 C 49.058 73.354 48.764 73.421 48.592 73.496 C 48.42 73.57 48.289 73.679 48.195 73.82 C 48.102 73.963 48.054 74.122 48.054 74.298 C 48.054 74.562 48.155 74.785 48.359 74.963 C 48.564 75.141 48.861 75.231 49.252 75.231 C 49.64 75.231 49.985 75.146 50.289 74.977 C 50.59 74.808 50.813 74.578 50.955 74.286 C 51.064 74.058 51.117 73.724 51.117 73.283 L 51.122 72.918 L 51.123 72.918 Z M 53.289 74.12 L 54.285 73.96 C 54.34 74.358 54.497 74.664 54.752 74.877 C 55.008 75.089 55.367 75.196 55.825 75.196 C 56.289 75.196 56.632 75.102 56.858 74.914 C 57.081 74.726 57.193 74.505 57.193 74.251 C 57.193 74.024 57.092 73.845 56.892 73.715 C 56.751 73.626 56.407 73.512 55.861 73.374 C 55.125 73.188 54.615 73.028 54.329 72.892 C 54.045 72.755 53.829 72.568 53.682 72.328 C 53.535 72.089 53.461 71.823 53.461 71.534 C 53.461 71.268 53.522 71.024 53.642 70.799 C 53.764 70.574 53.928 70.387 54.136 70.238 C 54.292 70.123 54.506 70.026 54.776 69.946 C 55.046 69.866 55.334 69.826 55.644 69.826 C 56.109 69.826 56.518 69.892 56.869 70.028 C 57.222 70.161 57.482 70.344 57.65 70.574 C 57.816 70.805 57.932 71.112 57.995 71.498 L 57.01 71.635 C 56.966 71.325 56.836 71.083 56.623 70.91 C 56.409 70.736 56.107 70.65 55.716 70.65 C 55.256 70.65 54.926 70.726 54.73 70.879 C 54.533 71.032 54.434 71.212 54.434 71.416 C 54.434 71.545 54.474 71.663 54.556 71.768 C 54.638 71.875 54.766 71.965 54.941 72.035 C 55.043 72.074 55.336 72.159 55.829 72.294 C 56.539 72.482 57.035 72.639 57.318 72.759 C 57.6 72.879 57.821 73.057 57.982 73.286 C 58.144 73.516 58.224 73.803 58.224 74.147 C 58.224 74.48 58.127 74.795 57.93 75.091 C 57.733 75.387 57.451 75.616 57.083 75.778 C 56.712 75.94 56.294 76.02 55.829 76.02 C 55.058 76.02 54.468 75.86 54.063 75.542 C 53.659 75.221 53.401 74.748 53.289 74.12 Z M 63.296 73.719 L 64.281 73.856 C 64.173 74.534 63.898 75.062 63.453 75.446 C 63.008 75.83 62.461 76.02 61.814 76.02 C 61.003 76.02 60.35 75.755 59.858 75.225 C 59.363 74.694 59.117 73.935 59.117 72.946 C 59.117 72.305 59.224 71.745 59.436 71.265 C 59.648 70.785 59.97 70.425 60.405 70.186 C 60.839 69.946 61.31 69.826 61.821 69.826 C 62.465 69.826 62.993 69.988 63.402 70.314 C 63.812 70.641 64.075 71.105 64.19 71.704 L 63.216 71.852 C 63.123 71.454 62.959 71.154 62.72 70.952 C 62.484 70.751 62.197 70.65 61.861 70.65 C 61.354 70.65 60.941 70.831 60.623 71.194 C 60.306 71.558 60.148 72.131 60.148 72.918 C 60.148 73.715 60.3 74.293 60.605 74.654 C 60.913 75.014 61.312 75.196 61.802 75.196 C 62.199 75.196 62.529 75.076 62.793 74.833 C 63.058 74.593 63.226 74.221 63.296 73.719 Z M 65.14 75.894 L 65.14 67.695 L 66.148 67.695 L 66.148 70.646 C 66.615 70.099 67.205 69.826 67.919 69.826 C 68.356 69.826 68.736 69.912 69.06 70.085 C 69.383 70.259 69.614 70.497 69.753 70.803 C 69.892 71.108 69.961 71.553 69.961 72.133 L 69.961 75.894 L 68.953 75.894 L 68.953 72.137 C 68.953 71.635 68.844 71.268 68.629 71.039 C 68.411 70.81 68.106 70.696 67.709 70.696 C 67.413 70.696 67.134 70.772 66.873 70.926 C 66.612 71.082 66.426 71.292 66.314 71.556 C 66.203 71.82 66.148 72.184 66.148 72.65 L 66.148 75.894 L 65.14 75.894 Z M 71.509 68.841 L 71.509 67.695 L 72.516 67.695 L 72.516 68.841 L 71.509 68.841 Z M 71.509 75.894 L 71.509 69.951 L 72.516 69.951 L 72.516 75.894 L 71.509 75.894 Z M 74.053 75.894 L 74.053 69.951 L 74.957 69.951 L 74.957 70.795 C 75.392 70.148 76.022 69.826 76.845 69.826 C 77.203 69.826 77.532 69.891 77.831 70.019 C 78.131 70.146 78.356 70.316 78.505 70.524 C 78.654 70.732 78.759 70.98 78.818 71.267 C 78.854 71.454 78.873 71.78 78.873 72.246 L 78.873 75.894 L 77.866 75.894 L 77.866 72.284 C 77.866 71.873 77.828 71.566 77.749 71.363 C 77.671 71.162 77.532 71 77.333 70.877 C 77.135 70.757 76.9 70.696 76.633 70.696 C 76.205 70.696 75.837 70.831 75.526 71.105 C 75.215 71.375 75.06 71.892 75.06 72.652 L 75.06 75.894 L 74.053 75.894 Z M 80.236 76.387 L 81.209 76.524 C 81.249 76.826 81.364 77.046 81.551 77.185 C 81.801 77.37 82.142 77.464 82.575 77.464 C 83.042 77.464 83.402 77.37 83.656 77.185 C 83.91 77 84.082 76.738 84.171 76.404 C 84.223 76.2 84.248 75.77 84.244 75.116 C 83.803 75.635 83.255 75.894 82.598 75.894 C 81.782 75.894 81.148 75.601 80.702 75.011 C 80.253 74.423 80.03 73.717 80.03 72.894 C 80.03 72.328 80.133 71.804 80.337 71.325 C 80.541 70.847 80.839 70.479 81.228 70.217 C 81.618 69.955 82.076 69.826 82.602 69.826 C 83.303 69.826 83.881 70.112 84.335 70.684 L 84.335 69.951 L 85.263 69.951 L 85.263 75.084 C 85.263 76.009 85.169 76.664 84.98 77.049 C 84.793 77.434 84.494 77.74 84.087 77.964 C 83.679 78.186 83.177 78.299 82.582 78.299 C 81.873 78.299 81.302 78.14 80.868 77.822 C 80.431 77.505 80.22 77.026 80.236 76.387 Z M 81.06 72.822 C 81.06 73.599 81.215 74.166 81.524 74.522 C 81.835 74.879 82.222 75.059 82.688 75.059 C 83.152 75.059 83.539 74.881 83.854 74.526 C 84.167 74.171 84.324 73.614 84.324 72.854 C 84.324 72.129 84.162 71.581 83.839 71.213 C 83.517 70.844 83.127 70.662 82.673 70.662 C 82.224 70.662 81.845 70.843 81.53 71.205 C 81.217 71.568 81.06 72.106 81.06 72.822"></path>
  <path id="path286" style="fill:#2b2b2a;fill-opacity:1;fill-rule:nonzero;stroke:none" d="M 12.586 91.457 L 12.586 84.22 L 9.883 84.22 L 9.883 83.258 L 16.376 83.258 L 16.376 84.22 L 13.674 84.22 L 13.674 91.457 L 12.586 91.457 Z M 20.155 89.532 L 21.197 89.67 C 21.035 90.275 20.731 90.746 20.288 91.08 C 19.846 91.414 19.28 91.583 18.591 91.583 C 17.725 91.583 17.038 91.315 16.53 90.78 C 16.023 90.248 15.769 89.498 15.769 88.534 C 15.769 87.538 16.025 86.764 16.538 86.214 C 17.051 85.663 17.718 85.388 18.536 85.388 C 19.328 85.388 19.975 85.657 20.477 86.197 C 20.979 86.737 21.231 87.496 21.231 88.476 C 21.231 88.534 21.23 88.625 21.226 88.743 L 16.8 88.743 C 16.838 89.393 17.021 89.894 17.353 90.239 C 17.684 90.584 18.098 90.758 18.592 90.758 C 18.96 90.758 19.275 90.66 19.535 90.466 C 19.796 90.271 20.002 89.96 20.155 89.532 Z M 16.857 87.918 L 20.166 87.918 C 20.122 87.418 19.994 87.044 19.786 86.794 C 19.468 86.406 19.051 86.212 18.542 86.212 C 18.08 86.212 17.693 86.367 17.378 86.676 C 17.065 86.985 16.891 87.399 16.857 87.918 Z M 22.447 91.457 L 22.447 83.258 L 23.454 83.258 L 23.454 91.457 L 22.447 91.457 Z M 29.067 89.532 L 30.109 89.67 C 29.947 90.275 29.644 90.746 29.201 91.08 C 28.758 91.414 28.193 91.583 27.504 91.583 C 26.638 91.583 25.951 91.315 25.443 90.78 C 24.935 90.248 24.681 89.498 24.681 88.534 C 24.681 87.538 24.937 86.764 25.451 86.214 C 25.964 85.663 26.63 85.388 27.449 85.388 C 28.241 85.388 28.888 85.657 29.39 86.197 C 29.892 86.737 30.144 87.496 30.144 88.476 C 30.144 88.534 30.142 88.625 30.138 88.743 L 25.712 88.743 C 25.75 89.393 25.933 89.894 26.266 90.239 C 26.596 90.584 27.01 90.758 27.504 90.758 C 27.873 90.758 28.188 90.66 28.447 90.466 C 28.708 90.271 28.915 89.96 29.067 89.532 Z M 25.769 87.918 L 29.078 87.918 C 29.035 87.418 28.907 87.044 28.699 86.794 C 28.38 86.406 27.964 86.212 27.454 86.212 C 26.993 86.212 26.605 86.367 26.29 86.676 C 25.977 86.985 25.804 87.399 25.769 87.918 Z M 31.622 91.457 L 31.622 86.292 L 30.729 86.292 L 30.729 85.514 L 31.622 85.514 L 31.622 84.884 C 31.622 84.485 31.657 84.189 31.728 83.997 C 31.825 83.737 31.992 83.525 32.237 83.363 C 32.479 83.201 32.821 83.121 33.26 83.121 C 33.544 83.121 33.857 83.155 34.201 83.222 L 34.05 84.103 C 33.84 84.067 33.643 84.048 33.456 84.048 C 33.151 84.048 32.936 84.113 32.808 84.243 C 32.682 84.372 32.619 84.615 32.619 84.97 L 32.619 85.514 L 33.775 85.514 L 33.775 86.292 L 32.63 86.292 L 32.63 91.457 L 31.622 91.457 Z M 34.186 88.485 C 34.186 87.388 34.491 86.575 35.104 86.046 C 35.613 85.607 36.237 85.388 36.972 85.388 C 37.787 85.388 38.455 85.655 38.974 86.189 C 39.491 86.721 39.751 87.46 39.751 88.401 C 39.751 89.164 39.636 89.763 39.407 90.2 C 39.178 90.638 38.844 90.977 38.405 91.22 C 37.968 91.462 37.489 91.583 36.972 91.583 C 36.14 91.583 35.468 91.317 34.955 90.785 C 34.441 90.252 34.186 89.485 34.186 88.485 Z M 35.216 88.487 C 35.216 89.246 35.382 89.815 35.714 90.19 C 36.048 90.568 36.466 90.757 36.972 90.757 C 37.472 90.757 37.888 90.568 38.222 90.188 C 38.554 89.809 38.72 89.23 38.72 88.454 C 38.72 87.721 38.552 87.166 38.218 86.79 C 37.884 86.412 37.468 86.223 36.972 86.223 C 36.466 86.223 36.048 86.41 35.714 86.786 C 35.382 87.162 35.216 87.728 35.216 88.487 Z M 40.932 91.456 L 40.932 85.513 L 41.837 85.513 L 41.837 86.357 C 42.272 85.71 42.902 85.387 43.724 85.387 C 44.083 85.387 44.411 85.452 44.711 85.58 C 45.01 85.708 45.236 85.877 45.384 86.085 C 45.533 86.293 45.638 86.542 45.698 86.828 C 45.734 87.015 45.753 87.341 45.753 87.807 L 45.753 91.456 L 44.745 91.456 L 44.745 87.845 C 44.745 87.435 44.707 87.127 44.629 86.925 C 44.55 86.723 44.411 86.56 44.213 86.439 C 44.014 86.318 43.779 86.257 43.512 86.257 C 43.085 86.257 42.717 86.393 42.406 86.666 C 42.094 86.937 41.94 87.454 41.94 88.213 L 41.94 91.456 L 40.932 91.456 Z M 50.207 87.41 C 50.207 86.442 50.307 85.66 50.505 85.068 C 50.705 84.475 51.001 84.019 51.394 83.7 C 51.786 83.381 52.28 83.223 52.876 83.223 C 53.314 83.223 53.7 83.31 54.034 83.488 C 54.366 83.665 54.641 83.921 54.854 84.255 C 55.068 84.588 55.236 84.994 55.358 85.473 C 55.482 85.952 55.544 86.599 55.544 87.41 C 55.544 88.372 55.444 89.15 55.248 89.742 C 55.051 90.336 54.755 90.792 54.362 91.112 C 53.971 91.433 53.475 91.594 52.876 91.594 C 52.087 91.594 51.467 91.312 51.016 90.75 C 50.476 90.063 50.207 88.95 50.207 87.41 Z M 51.238 87.413 C 51.238 88.763 51.394 89.659 51.709 90.102 C 52.024 90.546 52.414 90.768 52.876 90.768 C 53.337 90.768 53.727 90.545 54.042 90.1 C 54.356 89.653 54.513 88.759 54.513 87.413 C 54.513 86.064 54.356 85.167 54.042 84.724 C 53.729 84.279 53.336 84.058 52.864 84.058 C 52.402 84.058 52.032 84.254 51.755 84.646 C 51.41 85.144 51.238 86.068 51.238 87.413 Z M 56.633 84.322 L 56.633 83.36 L 61.935 83.36 L 61.935 84.138 C 61.414 84.694 60.895 85.432 60.383 86.354 C 59.87 87.276 59.475 88.224 59.194 89.2 C 58.994 89.885 58.864 90.638 58.809 91.456 L 57.778 91.456 C 57.79 90.81 57.916 90.029 58.158 89.115 C 58.4 88.199 58.746 87.318 59.198 86.468 C 59.65 85.619 60.132 84.903 60.641 84.322 L 56.633 84.322 Z M 68.223 90.494 L 68.223 91.456 L 62.796 91.456 C 62.788 91.213 62.828 90.98 62.914 90.755 C 63.053 90.386 63.276 90.022 63.584 89.666 C 63.891 89.308 64.33 88.896 64.9 88.428 C 65.788 87.698 66.391 87.12 66.706 86.692 C 67.023 86.264 67.181 85.86 67.181 85.478 C 67.181 85.079 67.038 84.743 66.752 84.469 C 66.466 84.196 66.091 84.058 65.631 84.058 C 65.145 84.058 64.755 84.203 64.464 84.493 C 64.171 84.782 64.024 85.182 64.021 85.696 L 62.99 85.593 C 63.061 84.821 63.328 84.234 63.79 83.829 C 64.253 83.424 64.874 83.222 65.654 83.222 C 66.441 83.222 67.065 83.44 67.523 83.876 C 67.983 84.314 68.212 84.856 68.212 85.501 C 68.212 85.829 68.145 86.151 68.01 86.468 C 67.876 86.787 67.653 87.122 67.342 87.472 C 67.028 87.821 66.511 88.304 65.79 88.915 C 65.185 89.422 64.795 89.766 64.624 89.947 C 64.452 90.129 64.311 90.31 64.198 90.494 L 68.223 90.494 Z M 74.592 90.494 L 74.592 91.456 L 69.164 91.456 C 69.156 91.213 69.196 90.98 69.282 90.755 C 69.422 90.386 69.645 90.022 69.952 89.666 C 70.26 89.308 70.698 88.896 71.269 88.428 C 72.156 87.698 72.76 87.12 73.074 86.692 C 73.391 86.264 73.55 85.86 73.55 85.478 C 73.55 85.079 73.407 84.743 73.12 84.469 C 72.834 84.196 72.46 84.058 72 84.058 C 71.514 84.058 71.124 84.203 70.832 84.493 C 70.54 84.782 70.393 85.182 70.389 85.696 L 69.359 85.593 C 69.429 84.821 69.696 84.234 70.158 83.829 C 70.622 83.424 71.243 83.222 72.023 83.222 C 72.809 83.222 73.433 83.44 73.891 83.876 C 74.351 84.314 74.58 84.856 74.58 85.501 C 74.58 85.829 74.513 86.151 74.378 86.468 C 74.244 86.787 74.021 87.122 73.71 87.472 C 73.397 87.821 72.88 88.304 72.158 88.915 C 71.554 89.422 71.164 89.766 70.992 89.947 C 70.821 90.129 70.679 90.31 70.567 90.494 L 74.592 90.494 Z M 75.83 89.554 L 76.792 89.474 C 76.874 89.929 77.03 90.257 77.261 90.461 C 77.492 90.665 77.788 90.768 78.151 90.768 C 78.46 90.768 78.731 90.697 78.966 90.555 C 79.201 90.413 79.392 90.224 79.539 89.986 C 79.685 89.749 79.81 89.428 79.91 89.026 C 80.012 88.624 80.061 88.213 80.061 87.795 C 80.061 87.751 80.06 87.682 80.056 87.593 C 79.856 87.913 79.581 88.174 79.234 88.373 C 78.886 88.574 78.508 88.673 78.103 88.673 C 77.426 88.673 76.854 88.427 76.384 87.934 C 75.917 87.444 75.682 86.795 75.682 85.989 C 75.682 85.157 75.926 84.489 76.417 83.981 C 76.905 83.476 77.518 83.222 78.256 83.222 C 78.787 83.222 79.274 83.365 79.716 83.653 C 80.157 83.94 80.491 84.348 80.72 84.88 C 80.949 85.411 81.064 86.18 81.064 87.186 C 81.064 88.233 80.951 89.068 80.724 89.688 C 80.497 90.31 80.157 90.782 79.709 91.106 C 79.26 91.431 78.735 91.593 78.132 91.593 C 77.491 91.593 76.968 91.415 76.561 91.058 C 76.157 90.701 75.912 90.199 75.83 89.554 Z M 79.941 85.938 C 79.941 85.362 79.788 84.903 79.483 84.565 C 79.18 84.228 78.81 84.058 78.374 84.058 C 77.924 84.058 77.535 84.24 77.206 84.604 C 76.876 84.969 76.712 85.442 76.712 86.022 C 76.712 86.543 76.868 86.967 77.179 87.291 C 77.492 87.617 77.882 87.78 78.346 87.78 C 78.811 87.78 79.193 87.617 79.492 87.291 C 79.792 86.967 79.941 86.514 79.941 85.938 Z M 81.569 91.593 L 83.951 83.119 L 84.762 83.119 L 82.38 91.593 L 81.569 91.593 Z M 85.289 84.322 L 85.289 83.36 L 90.59 83.36 L 90.59 84.138 C 90.07 84.694 89.55 85.432 89.039 86.354 C 88.526 87.276 88.131 88.224 87.85 89.2 C 87.65 89.885 87.52 90.638 87.464 91.456 L 86.434 91.456 C 86.445 90.81 86.571 90.029 86.814 89.115 C 87.056 88.199 87.402 87.318 87.854 86.468 C 88.306 85.619 88.787 84.903 89.297 84.322 L 85.289 84.322 Z M 91.6 87.41 C 91.6 86.442 91.699 85.659 91.898 85.067 C 92.098 84.474 92.394 84.018 92.787 83.699 C 93.178 83.38 93.672 83.222 94.268 83.222 C 94.707 83.222 95.092 83.31 95.427 83.488 C 95.758 83.665 96.033 83.921 96.247 84.254 C 96.461 84.587 96.629 84.993 96.751 85.472 C 96.875 85.951 96.936 86.598 96.936 87.41 C 96.936 88.371 96.837 89.15 96.64 89.741 C 96.444 90.335 96.148 90.791 95.755 91.112 C 95.364 91.432 94.867 91.593 94.268 91.593 C 93.48 91.593 92.86 91.312 92.409 90.749 C 91.869 90.062 91.6 88.949 91.6 87.41 Z M 92.63 87.412 C 92.63 88.762 92.787 89.659 93.102 90.102 C 93.417 90.546 93.806 90.767 94.268 90.767 C 94.73 90.767 95.119 90.544 95.434 90.1 C 95.749 89.653 95.906 88.758 95.906 87.412 C 95.906 86.063 95.749 85.166 95.434 84.724 C 95.121 84.279 94.728 84.057 94.256 84.057 C 93.795 84.057 93.425 84.254 93.148 84.645 C 92.802 85.143 92.63 86.067 92.63 87.412 Z M 97.968 89.302 L 99.022 89.222 C 99.1 89.735 99.282 90.12 99.564 90.38 C 99.846 90.638 100.192 90.767 100.598 90.767 C 101.089 90.767 101.499 90.584 101.833 90.22 C 102.165 89.853 102.331 89.368 102.331 88.765 C 102.331 88.191 102.173 87.739 101.854 87.407 C 101.535 87.074 101.114 86.909 100.589 86.909 C 100.262 86.909 99.97 86.983 99.711 87.132 C 99.453 87.281 99.251 87.473 99.102 87.71 L 98.152 87.572 L 98.942 83.359 L 103.007 83.359 L 103.007 84.321 L 99.746 84.321 L 99.308 86.532 C 99.799 86.187 100.314 86.015 100.852 86.015 C 101.566 86.015 102.169 86.264 102.66 86.76 C 103.15 87.256 103.396 87.894 103.396 88.672 C 103.396 89.414 103.181 90.056 102.749 90.596 C 102.224 91.26 101.507 91.592 100.598 91.592 C 99.854 91.592 99.247 91.382 98.776 90.964 C 98.304 90.546 98.035 89.992 97.968 89.302 Z M 109.57 85.259 L 108.574 85.34 C 108.484 84.945 108.356 84.657 108.19 84.477 C 107.917 84.189 107.58 84.046 107.179 84.046 C 106.856 84.046 106.57 84.136 106.324 84.315 C 106.007 84.546 105.759 84.882 105.574 85.325 C 105.391 85.769 105.295 86.401 105.287 87.22 C 105.53 86.852 105.828 86.577 106.179 86.399 C 106.53 86.219 106.896 86.13 107.282 86.13 C 107.954 86.13 108.526 86.378 108.999 86.872 C 109.471 87.366 109.708 88.004 109.708 88.788 C 109.708 89.304 109.597 89.781 109.375 90.223 C 109.152 90.667 108.848 91.004 108.459 91.239 C 108.072 91.473 107.631 91.592 107.139 91.592 C 106.301 91.592 105.616 91.283 105.085 90.667 C 104.556 90.05 104.291 89.032 104.291 87.617 C 104.291 86.033 104.585 84.88 105.171 84.161 C 105.682 83.535 106.371 83.222 107.24 83.222 C 107.885 83.222 108.415 83.402 108.828 83.764 C 109.24 84.124 109.488 84.623 109.57 85.259 Z M 105.448 88.798 C 105.448 89.145 105.522 89.478 105.669 89.794 C 105.816 90.111 106.022 90.351 106.284 90.518 C 106.547 90.683 106.826 90.767 107.122 90.767 C 107.551 90.767 107.917 90.596 108.221 90.253 C 108.524 89.909 108.677 89.443 108.677 88.854 C 108.677 88.287 108.526 87.84 108.226 87.514 C 107.927 87.187 107.545 87.023 107.082 87.023 C 106.627 87.023 106.24 87.187 105.923 87.514 C 105.606 87.84 105.448 88.267 105.448 88.798 Z M 110.705 87.409 C 110.705 86.441 110.805 85.658 111.003 85.067 C 111.204 84.473 111.499 84.017 111.892 83.698 C 112.284 83.38 112.778 83.222 113.374 83.222 C 113.812 83.222 114.198 83.309 114.532 83.487 C 114.864 83.664 115.139 83.92 115.353 84.254 C 115.567 84.586 115.734 84.993 115.856 85.471 C 115.98 85.951 116.042 86.598 116.042 87.409 C 116.042 88.37 115.942 89.149 115.746 89.741 C 115.549 90.335 115.253 90.79 114.86 91.111 C 114.469 91.432 113.973 91.592 113.374 91.592 C 112.585 91.592 111.965 91.311 111.515 90.749 C 110.974 90.061 110.705 88.949 110.705 87.409 Z M 111.736 87.412 C 111.736 88.761 111.892 89.658 112.207 90.101 C 112.523 90.545 112.912 90.767 113.374 90.767 C 113.836 90.767 114.225 90.543 114.54 90.099 C 114.854 89.652 115.011 88.757 115.011 87.412 C 115.011 86.063 114.854 85.166 114.54 84.723 C 114.227 84.278 113.834 84.056 113.362 84.056 C 112.9 84.056 112.53 84.253 112.253 84.645 C 111.908 85.142 111.736 86.066 111.736 87.412"></path>
  <path id="path288" style="fill:#2b2b2a;fill-opacity:1;fill-rule:nonzero;stroke:none" d="M 13.273 105.875 L 13.273 98.638 L 10.571 98.638 L 10.571 97.676 L 17.063 97.676 L 17.063 98.638 L 14.361 98.638 L 14.361 105.875 L 13.273 105.875 Z M 20.842 103.951 L 21.884 104.089 C 21.722 104.694 21.419 105.165 20.976 105.499 C 20.533 105.833 19.968 106.001 19.279 106.001 C 18.413 106.001 17.726 105.734 17.218 105.199 C 16.71 104.667 16.456 103.917 16.456 102.953 C 16.456 101.957 16.712 101.182 17.226 100.632 C 17.739 100.081 18.405 99.806 19.224 99.806 C 20.016 99.806 20.663 100.075 21.165 100.616 C 21.666 101.155 21.919 101.915 21.919 102.894 C 21.919 102.953 21.917 103.043 21.913 103.162 L 17.488 103.162 C 17.526 103.812 17.709 104.312 18.041 104.657 C 18.371 105.002 18.785 105.176 19.279 105.176 C 19.648 105.176 19.963 105.079 20.222 104.884 C 20.484 104.69 20.69 104.378 20.843 103.951 L 20.842 103.951 Z M 17.544 102.337 L 20.854 102.337 C 20.81 101.836 20.682 101.463 20.474 101.212 C 20.155 100.825 19.739 100.63 19.229 100.63 C 18.768 100.63 18.38 100.785 18.065 101.094 C 17.752 101.404 17.579 101.818 17.544 102.337 Z M 23.134 105.875 L 23.134 97.676 L 24.142 97.676 L 24.142 105.875 L 23.134 105.875 Z M 29.755 103.951 L 30.797 104.089 C 30.635 104.694 30.331 105.165 29.888 105.499 C 29.446 105.833 28.88 106.001 28.191 106.001 C 27.325 106.001 26.638 105.734 26.13 105.199 C 25.623 104.667 25.369 103.917 25.369 102.953 C 25.369 101.957 25.625 101.182 26.138 100.632 C 26.651 100.081 27.318 99.806 28.136 99.806 C 28.928 99.806 29.575 100.075 30.077 100.616 C 30.579 101.155 30.831 101.915 30.831 102.894 C 30.831 102.953 30.83 103.043 30.826 103.162 L 26.4 103.162 C 26.438 103.812 26.621 104.312 26.953 104.657 C 27.284 105.002 27.698 105.176 28.192 105.176 C 28.56 105.176 28.875 105.079 29.135 104.884 C 29.396 104.69 29.602 104.378 29.755 103.951 Z M 26.457 102.337 L 29.766 102.337 C 29.722 101.836 29.594 101.463 29.386 101.212 C 29.068 100.825 28.651 100.63 28.142 100.63 C 27.68 100.63 27.293 100.785 26.978 101.094 C 26.665 101.404 26.491 101.818 26.457 102.337 Z M 32.31 105.875 L 32.31 100.71 L 31.417 100.71 L 31.417 99.932 L 32.31 99.932 L 32.31 99.302 C 32.31 98.904 32.344 98.608 32.415 98.415 C 32.512 98.155 32.68 97.944 32.925 97.781 C 33.167 97.619 33.508 97.539 33.947 97.539 C 34.232 97.539 34.545 97.574 34.888 97.64 L 34.738 98.522 C 34.527 98.486 34.331 98.467 34.144 98.467 C 33.838 98.467 33.623 98.531 33.495 98.661 C 33.369 98.79 33.306 99.034 33.306 99.388 L 33.306 99.932 L 34.463 99.932 L 34.463 100.71 L 33.318 100.71 L 33.318 105.875 L 32.31 105.875 Z M 39.133 105.131 C 38.759 105.45 38.398 105.673 38.053 105.804 C 37.707 105.936 37.337 106.001 36.94 106.001 C 36.287 106.001 35.785 105.843 35.434 105.524 C 35.083 105.207 34.908 104.801 34.908 104.306 C 34.908 104.016 34.974 103.751 35.106 103.51 C 35.24 103.27 35.413 103.079 35.627 102.934 C 35.843 102.789 36.083 102.678 36.352 102.604 C 36.551 102.552 36.85 102.503 37.249 102.453 C 38.062 102.358 38.663 102.241 39.047 102.108 C 39.051 101.971 39.052 101.882 39.052 101.846 C 39.052 101.438 38.957 101.149 38.766 100.982 C 38.508 100.755 38.125 100.642 37.617 100.642 C 37.142 100.642 36.791 100.726 36.566 100.892 C 36.339 101.058 36.173 101.352 36.064 101.776 L 35.079 101.638 C 35.168 101.217 35.315 100.874 35.522 100.616 C 35.728 100.356 36.026 100.157 36.415 100.016 C 36.802 99.876 37.255 99.806 37.766 99.806 C 38.274 99.806 38.688 99.865 39.007 99.985 C 39.323 100.106 39.558 100.255 39.707 100.436 C 39.856 100.618 39.961 100.847 40.022 101.123 C 40.054 101.295 40.072 101.604 40.072 102.049 L 40.072 103.384 C 40.072 104.318 40.092 104.908 40.134 105.158 C 40.174 105.407 40.258 105.646 40.381 105.875 L 39.327 105.875 C 39.226 105.663 39.161 105.415 39.132 105.131 L 39.133 105.131 Z M 39.053 102.898 C 38.686 103.047 38.136 103.173 37.404 103.276 C 36.988 103.335 36.694 103.402 36.522 103.476 C 36.35 103.551 36.219 103.66 36.125 103.8 C 36.032 103.944 35.984 104.102 35.984 104.278 C 35.984 104.543 36.085 104.766 36.29 104.944 C 36.494 105.121 36.791 105.211 37.183 105.211 C 37.57 105.211 37.915 105.127 38.219 104.957 C 38.52 104.789 38.744 104.558 38.885 104.266 C 38.994 104.039 39.047 103.705 39.047 103.264 L 39.052 102.898 L 39.053 102.898 Z M 40.933 105.875 L 43.102 102.796 L 41.093 99.932 L 42.331 99.932 L 43.27 101.334 C 43.444 101.598 43.581 101.812 43.679 101.98 C 43.848 101.741 43.999 101.526 44.135 101.333 L 45.123 99.932 L 46.354 99.932 L 44.333 102.796 L 46.486 105.875 L 45.261 105.875 L 44.032 104.042 L 43.751 103.602 L 42.164 105.875 L 40.933 105.875 Z M 50.251 101.829 C 50.251 100.861 50.351 100.079 50.549 99.487 C 50.75 98.894 51.046 98.438 51.439 98.119 C 51.83 97.8 52.324 97.642 52.92 97.642 C 53.359 97.642 53.744 97.73 54.078 97.907 C 54.41 98.085 54.685 98.34 54.899 98.674 C 55.113 99.007 55.28 99.413 55.403 99.892 C 55.526 100.371 55.588 101.018 55.588 101.829 C 55.588 102.791 55.488 103.569 55.292 104.161 C 55.095 104.755 54.799 105.211 54.406 105.532 C 54.015 105.852 53.519 106.012 52.92 106.012 C 52.131 106.012 51.511 105.732 51.061 105.169 C 50.52 104.482 50.251 103.369 50.251 101.829 Z M 51.282 101.832 C 51.282 103.182 51.439 104.078 51.753 104.521 C 52.069 104.966 52.458 105.187 52.92 105.187 C 53.382 105.187 53.771 104.964 54.086 104.519 C 54.401 104.073 54.557 103.177 54.557 101.832 C 54.557 100.483 54.401 99.586 54.086 99.143 C 53.773 98.698 53.38 98.477 52.908 98.477 C 52.446 98.477 52.076 98.674 51.8 99.065 C 51.454 99.563 51.282 100.487 51.282 101.832 Z M 56.677 98.741 L 56.677 97.779 L 61.979 97.779 L 61.979 98.557 C 61.458 99.113 60.939 99.852 60.427 100.773 C 59.914 101.695 59.519 102.643 59.238 103.618 C 59.038 104.304 58.908 105.058 58.853 105.874 L 57.823 105.874 C 57.833 105.229 57.96 104.448 58.202 103.534 C 58.445 102.618 58.79 101.737 59.242 100.887 C 59.695 100.039 60.176 99.322 60.685 98.741 L 56.677 98.741 Z M 68.267 104.912 L 68.267 105.874 L 62.84 105.874 C 62.832 105.632 62.872 105.399 62.958 105.174 C 63.097 104.805 63.321 104.441 63.628 104.085 C 63.935 103.727 64.374 103.315 64.945 102.848 C 65.832 102.117 66.435 101.539 66.75 101.111 C 67.067 100.683 67.225 100.279 67.225 99.897 C 67.225 99.498 67.082 99.162 66.796 98.887 C 66.51 98.615 66.136 98.477 65.676 98.477 C 65.189 98.477 64.8 98.622 64.508 98.912 C 64.216 99.2 64.069 99.601 64.065 100.114 L 63.035 100.012 C 63.105 99.241 63.372 98.653 63.834 98.248 C 64.298 97.843 64.918 97.641 65.699 97.641 C 66.485 97.641 67.109 97.858 67.567 98.295 C 68.027 98.733 68.256 99.275 68.256 99.92 C 68.256 100.248 68.189 100.57 68.054 100.887 C 67.92 101.206 67.697 101.541 67.386 101.891 C 67.073 102.24 66.556 102.723 65.834 103.334 C 65.229 103.842 64.84 104.185 64.668 104.366 C 64.496 104.548 64.355 104.729 64.242 104.912 L 68.267 104.912 Z M 74.636 104.912 L 74.636 105.874 L 69.208 105.874 C 69.2 105.632 69.24 105.399 69.327 105.174 C 69.466 104.805 69.689 104.441 69.996 104.085 C 70.304 103.727 70.742 103.315 71.313 102.848 C 72.201 102.117 72.804 101.539 73.119 101.111 C 73.435 100.683 73.594 100.279 73.594 99.897 C 73.594 99.498 73.451 99.162 73.164 98.887 C 72.878 98.615 72.504 98.477 72.044 98.477 C 71.558 98.477 71.168 98.622 70.876 98.912 C 70.584 99.2 70.437 99.601 70.433 100.114 L 69.403 100.012 C 69.473 99.241 69.741 98.653 70.202 98.248 C 70.666 97.843 71.287 97.641 72.067 97.641 C 72.853 97.641 73.477 97.858 73.935 98.295 C 74.395 98.733 74.624 99.275 74.624 99.92 C 74.624 100.248 74.558 100.57 74.422 100.887 C 74.288 101.206 74.066 101.541 73.754 101.891 C 73.441 102.24 72.924 102.723 72.203 103.334 C 71.598 103.842 71.208 104.185 71.037 104.366 C 70.865 104.548 70.724 104.729 70.611 104.912 L 74.636 104.912 Z M 75.874 103.973 L 76.836 103.893 C 76.918 104.348 77.075 104.676 77.306 104.88 C 77.537 105.084 77.832 105.187 78.195 105.187 C 78.504 105.187 78.776 105.116 79.01 104.974 C 79.245 104.832 79.436 104.643 79.583 104.405 C 79.73 104.168 79.854 103.847 79.955 103.445 C 80.056 103.042 80.106 102.632 80.106 102.214 C 80.106 102.17 80.104 102.101 80.1 102.012 C 79.9 102.332 79.625 102.594 79.278 102.792 C 78.93 102.992 78.553 103.092 78.148 103.092 C 77.47 103.092 76.898 102.846 76.428 102.353 C 75.961 101.863 75.726 101.214 75.726 100.408 C 75.726 99.577 75.97 98.908 76.461 98.4 C 76.949 97.895 77.562 97.641 78.3 97.641 C 78.831 97.641 79.318 97.784 79.76 98.073 C 80.202 98.359 80.535 98.768 80.764 99.299 C 80.993 99.83 81.108 100.599 81.108 101.605 C 81.108 102.652 80.995 103.487 80.768 104.107 C 80.541 104.729 80.202 105.201 79.753 105.525 C 79.304 105.85 78.78 106.012 78.176 106.012 C 77.535 106.012 77.012 105.834 76.606 105.477 C 76.201 105.12 75.957 104.618 75.875 103.973 L 75.874 103.973 Z M 79.985 100.357 C 79.985 99.781 79.833 99.322 79.527 98.985 C 79.224 98.647 78.854 98.477 78.418 98.477 C 77.968 98.477 77.579 98.659 77.25 99.023 C 76.92 99.388 76.756 99.861 76.756 100.441 C 76.756 100.962 76.913 101.386 77.224 101.71 C 77.537 102.036 77.926 102.199 78.39 102.199 C 78.856 102.199 79.237 102.036 79.537 101.71 C 79.836 101.386 79.985 100.933 79.985 100.357 Z M 81.613 106.012 L 83.995 97.538 L 84.806 97.538 L 82.424 106.012 L 81.613 106.012 Z M 85.333 98.741 L 85.333 97.779 L 90.635 97.779 L 90.635 98.557 C 90.114 99.113 89.594 99.852 89.083 100.773 C 88.57 101.695 88.175 102.643 87.894 103.618 C 87.694 104.304 87.564 105.058 87.508 105.874 L 86.478 105.874 C 86.489 105.229 86.615 104.448 86.858 103.534 C 87.1 102.618 87.446 101.737 87.898 100.887 C 88.35 100.039 88.831 99.322 89.341 98.741 L 85.333 98.741 Z M 91.644 101.829 C 91.644 100.861 91.743 100.078 91.942 99.486 C 92.142 98.893 92.438 98.437 92.831 98.119 C 93.222 97.8 93.717 97.641 94.312 97.641 C 94.751 97.641 95.137 97.729 95.471 97.906 C 95.803 98.084 96.077 98.34 96.291 98.674 C 96.505 99.006 96.673 99.412 96.795 99.891 C 96.919 100.37 96.98 101.017 96.98 101.829 C 96.98 102.79 96.881 103.569 96.684 104.16 C 96.488 104.754 96.192 105.21 95.799 105.531 C 95.408 105.852 94.911 106.012 94.312 106.012 C 93.524 106.012 92.904 105.731 92.453 105.168 C 91.913 104.481 91.644 103.369 91.644 101.829 Z M 92.675 101.831 C 92.675 103.181 92.831 104.077 93.146 104.521 C 93.461 104.965 93.851 105.186 94.312 105.186 C 94.774 105.186 95.164 104.963 95.478 104.518 C 95.793 104.072 95.95 103.177 95.95 101.831 C 95.95 100.482 95.793 99.586 95.478 99.142 C 95.165 98.698 94.772 98.477 94.301 98.477 C 93.839 98.477 93.469 98.673 93.192 99.064 C 92.847 99.562 92.675 100.486 92.675 101.831 Z M 98.013 103.721 L 99.066 103.641 C 99.144 104.154 99.326 104.539 99.608 104.799 C 99.891 105.057 100.236 105.186 100.643 105.186 C 101.133 105.186 101.543 105.003 101.878 104.639 C 102.209 104.272 102.376 103.788 102.376 103.184 C 102.376 102.61 102.217 102.158 101.898 101.826 C 101.58 101.494 101.158 101.328 100.633 101.328 C 100.307 101.328 100.015 101.402 99.755 101.551 C 99.498 101.7 99.295 101.892 99.146 102.13 L 98.196 101.992 L 98.986 97.778 L 103.051 97.778 L 103.051 98.74 L 99.79 98.74 L 99.352 100.951 C 99.843 100.606 100.358 100.434 100.896 100.434 C 101.61 100.434 102.213 100.683 102.704 101.179 C 103.194 101.675 103.44 102.313 103.44 103.091 C 103.44 103.833 103.225 104.475 102.793 105.015 C 102.269 105.679 101.551 106.011 100.643 106.011 C 99.898 106.011 99.292 105.801 98.82 105.383 C 98.349 104.965 98.079 104.412 98.013 103.721 Z M 109.614 99.679 L 108.618 99.759 C 108.528 99.364 108.401 99.076 108.234 98.896 C 107.961 98.608 107.624 98.465 107.223 98.465 C 106.9 98.465 106.614 98.555 106.368 98.734 C 106.051 98.965 105.803 99.301 105.618 99.744 C 105.435 100.189 105.339 100.82 105.332 101.638 C 105.574 101.271 105.872 100.996 106.223 100.818 C 106.574 100.639 106.941 100.549 107.326 100.549 C 107.998 100.549 108.57 100.797 109.044 101.291 C 109.515 101.786 109.752 102.423 109.752 103.207 C 109.752 103.723 109.641 104.2 109.42 104.642 C 109.196 105.085 108.893 105.423 108.503 105.658 C 108.116 105.892 107.675 106.011 107.183 106.011 C 106.345 106.011 105.66 105.702 105.129 105.085 C 104.601 104.469 104.335 103.452 104.335 102.036 C 104.335 100.452 104.629 99.299 105.215 98.58 C 105.727 97.954 106.416 97.641 107.284 97.641 C 107.929 97.641 108.46 97.822 108.872 98.182 C 109.284 98.544 109.532 99.042 109.614 99.679 Z M 105.492 103.217 C 105.492 103.565 105.566 103.897 105.713 104.213 C 105.86 104.53 106.066 104.77 106.328 104.937 C 106.591 105.103 106.87 105.186 107.166 105.186 C 107.595 105.186 107.961 105.015 108.265 104.672 C 108.568 104.328 108.721 103.862 108.721 103.273 C 108.721 102.706 108.57 102.259 108.271 101.933 C 107.971 101.606 107.59 101.442 107.126 101.442 C 106.671 101.442 106.284 101.606 105.967 101.933 C 105.65 102.259 105.492 102.686 105.492 103.217 Z M 110.75 101.828 C 110.75 100.86 110.849 100.078 111.047 99.486 C 111.248 98.893 111.544 98.436 111.937 98.118 C 112.328 97.799 112.822 97.641 113.418 97.641 C 113.857 97.641 114.242 97.728 114.576 97.906 C 114.908 98.084 115.183 98.339 115.397 98.673 C 115.611 99.005 115.779 99.412 115.901 99.89 C 116.025 100.37 116.086 101.017 116.086 101.828 C 116.086 102.79 115.986 103.568 115.79 104.16 C 115.593 104.754 115.298 105.209 114.904 105.53 C 114.513 105.851 114.017 106.011 113.418 106.011 C 112.63 106.011 112.009 105.73 111.559 105.168 C 111.019 104.48 110.75 103.368 110.75 101.828 Z M 111.78 101.831 C 111.78 103.18 111.937 104.077 112.252 104.52 C 112.567 104.964 112.956 105.186 113.418 105.186 C 113.88 105.186 114.269 104.962 114.584 104.518 C 114.899 104.072 115.055 103.176 115.055 101.831 C 115.055 100.481 114.899 99.585 114.584 99.142 C 114.271 98.697 113.878 98.476 113.406 98.476 C 112.944 98.476 112.574 98.672 112.298 99.064 C 111.952 99.562 111.78 100.486 111.78 101.831 Z M 125.533 99.678 L 124.536 99.758 C 124.447 99.363 124.319 99.075 124.153 98.895 C 123.88 98.607 123.542 98.465 123.142 98.465 C 122.819 98.465 122.533 98.554 122.287 98.733 C 121.97 98.964 121.722 99.3 121.537 99.743 C 121.353 100.188 121.258 100.82 121.25 101.638 C 121.492 101.27 121.79 100.995 122.141 100.817 C 122.493 100.638 122.859 100.548 123.245 100.548 C 123.916 100.548 124.489 100.797 124.962 101.29 C 125.434 101.785 125.67 102.422 125.67 103.207 C 125.67 103.722 125.56 104.2 125.338 104.642 C 125.115 105.085 124.811 105.423 124.422 105.657 C 124.035 105.892 123.594 106.01 123.101 106.01 C 122.264 106.01 121.579 105.702 121.048 105.085 C 120.519 104.468 120.254 103.451 120.254 102.035 C 120.254 100.451 120.548 99.298 121.134 98.579 C 121.645 97.953 122.334 97.64 123.203 97.64 C 123.848 97.64 124.378 97.821 124.79 98.182 C 125.203 98.543 125.451 99.041 125.533 99.678 Z M 121.41 103.217 C 121.41 103.564 121.485 103.896 121.632 104.212 C 121.779 104.529 121.985 104.77 122.246 104.936 C 122.51 105.102 122.788 105.186 123.084 105.186 C 123.514 105.186 123.88 105.014 124.184 104.671 C 124.487 104.327 124.64 103.862 124.64 103.272 C 124.64 102.705 124.489 102.258 124.189 101.932 C 123.89 101.606 123.508 101.441 123.044 101.441 C 122.59 101.441 122.203 101.606 121.886 101.932 C 121.569 102.258 121.41 102.686 121.41 103.217 Z M 126.668 101.827 C 126.668 100.859 126.768 100.077 126.966 99.485 C 127.166 98.892 127.462 98.436 127.855 98.117 C 128.246 97.798 128.741 97.64 129.336 97.64 C 129.775 97.64 130.161 97.728 130.495 97.905 C 130.827 98.083 131.102 98.338 131.316 98.672 C 131.529 99.005 131.697 99.411 131.819 99.89 C 131.943 100.369 132.004 101.016 132.004 101.827 C 132.004 102.789 131.905 103.567 131.709 104.159 C 131.512 104.753 131.216 105.209 130.823 105.53 C 130.432 105.85 129.936 106.01 129.336 106.01 C 128.548 106.01 127.928 105.73 127.477 105.167 C 126.937 104.48 126.668 103.367 126.668 101.827 Z M 127.699 101.83 C 127.699 103.18 127.855 104.076 128.17 104.519 C 128.485 104.964 128.875 105.185 129.336 105.185 C 129.798 105.185 130.188 104.962 130.502 104.517 C 130.817 104.071 130.974 103.175 130.974 101.83 C 130.974 100.481 130.817 99.584 130.502 99.141 C 130.19 98.696 129.796 98.475 129.325 98.475 C 128.863 98.475 128.493 98.672 128.216 99.063 C 127.871 99.561 127.699 100.485 127.699 101.83"></path>
</svg>